<?xml version="1.0" encoding="UTF-8"?>
<!DOCTYPE svg PUBLIC "-//W3C//DTD SVG 1.1//EN" "http://www.w3.org/Graphics/SVG/1.1/DTD/svg11.dtd">
<svg xmlns="http://www.w3.org/2000/svg" version="1.1" width="24px" height="24px" style="shape-rendering:geometricPrecision; text-rendering:geometricPrecision; image-rendering:optimizeQuality; fill-rule:evenodd; clip-rule:evenodd" xmlns:xlink="http://www.w3.org/1999/xlink">
<g><path style="opacity:1" fill="#000000" d="M 2.5,7.5 C 8.50924,7.33385 14.5092,7.50051 20.5,8C 21.435,10.3806 21.7683,12.8806 21.5,15.5C 15.1579,15.6662 8.82458,15.4995 2.5,15C 1.22147,12.5024 1.22147,10.0024 2.5,7.5 Z M 3.5,9.5 C 4.83333,9.5 6.16667,9.5 7.5,9.5C 7.5,10.8333 7.5,12.1667 7.5,13.5C 6.16667,13.5 4.83333,13.5 3.5,13.5C 3.5,12.1667 3.5,10.8333 3.5,9.5 Z M 9.5,9.5 C 10.8333,9.5 12.1667,9.5 13.5,9.5C 13.5,10.8333 13.5,12.1667 13.5,13.5C 12.1667,13.5 10.8333,13.5 9.5,13.5C 9.5,12.1667 9.5,10.8333 9.5,9.5 Z M 15.5,9.5 C 16.8333,9.5 18.1667,9.5 19.5,9.5C 19.5,10.8333 19.5,12.1667 19.5,13.5C 18.1667,13.5 16.8333,13.5 15.5,13.5C 15.5,12.1667 15.5,10.8333 15.5,9.5 Z"/></g>
</svg>
