<?xml version="1.0" encoding="UTF-8"?>
<!DOCTYPE svg PUBLIC "-//W3C//DTD SVG 1.1//EN" "http://www.w3.org/Graphics/SVG/1.1/DTD/svg11.dtd">
<svg xmlns="http://www.w3.org/2000/svg" version="1.1" width="24px" height="24px" style="shape-rendering:geometricPrecision; text-rendering:geometricPrecision; image-rendering:optimizeQuality; fill-rule:evenodd; clip-rule:evenodd" xmlns:xlink="http://www.w3.org/1999/xlink">
<g><path style="opacity:1" fill="#000000" d="M 1.5,0.5 C 4.5,0.5 7.5,0.5 10.5,0.5C 10.5,3.83333 10.5,7.16667 10.5,10.5C 7.16667,10.5 3.83333,10.5 0.5,10.5C 0.252932,7.06131 0.586265,3.72797 1.5,0.5 Z M 2.5,2.5 C 4.83333,2.5 7.16667,2.5 9.5,2.5C 9.5,4.83333 9.5,7.16667 9.5,9.5C 7.16667,9.5 4.83333,9.5 2.5,9.5C 2.5,7.16667 2.5,4.83333 2.5,2.5 Z"/></g>
<g><path style="opacity:1" fill="#000000" d="M 12.5,0.5 C 15.8333,0.5 19.1667,0.5 22.5,0.5C 22.5,3.83333 22.5,7.16667 22.5,10.5C 19.1667,10.5 15.8333,10.5 12.5,10.5C 12.5,7.16667 12.5,3.83333 12.5,0.5 Z M 14.5,2.5 C 16.5,2.5 18.5,2.5 20.5,2.5C 20.5,4.83333 20.5,7.16667 20.5,9.5C 18.5,9.5 16.5,9.5 14.5,9.5C 14.5,7.16667 14.5,4.83333 14.5,2.5 Z"/></g>
<g><path style="opacity:1" fill="#000000" d="M 0.5,12.5 C 3.83333,12.5 7.16667,12.5 10.5,12.5C 10.5,15.8333 10.5,19.1667 10.5,22.5C 7.16667,22.5 3.83333,22.5 0.5,22.5C 0.5,19.1667 0.5,15.8333 0.5,12.5 Z M 2.5,14.5 C 4.83333,14.5 7.16667,14.5 9.5,14.5C 9.5,16.5 9.5,18.5 9.5,20.5C 7.16667,20.5 4.83333,20.5 2.5,20.5C 2.5,18.5 2.5,16.5 2.5,14.5 Z"/></g>
<g><path style="opacity:1" fill="#000000" d="M 12.5,12.5 C 15.8333,12.5 19.1667,12.5 22.5,12.5C 22.5,15.8333 22.5,19.1667 22.5,22.5C 19.1667,22.5 15.8333,22.5 12.5,22.5C 12.5,19.1667 12.5,15.8333 12.5,12.5 Z M 14.5,14.5 C 16.5,14.5 18.5,14.5 20.5,14.5C 20.5,16.5 20.5,18.5 20.5,20.5C 18.5,20.5 16.5,20.5 14.5,20.5C 14.5,18.5 14.5,16.5 14.5,14.5 Z"/></g>
</svg>
