<?xml version="1.0" encoding="UTF-8"?>
<!DOCTYPE svg PUBLIC "-//W3C//DTD SVG 1.1//EN" "http://www.w3.org/Graphics/SVG/1.1/DTD/svg11.dtd">
<svg xmlns="http://www.w3.org/2000/svg" version="1.1" width="32px" height="32px" style="shape-rendering:geometricPrecision; text-rendering:geometricPrecision; image-rendering:optimizeQuality; fill-rule:evenodd; clip-rule:evenodd" xmlns:xlink="http://www.w3.org/1999/xlink">
<g><path style="opacity:0.882" fill="#f2f2f2" d="M 19.5,1.5 C 20.5,1.5 21.5,1.5 22.5,1.5C 23.7065,2.8804 23.3731,4.04707 21.5,5C 20.2506,5.74012 19.2506,5.57346 18.5,4.5C 18.5569,3.39105 18.8902,2.39105 19.5,1.5 Z"/></g>
<g><path style="opacity:0.944" fill="#eeeeee" d="M 25.5,4.5 C 23.2989,5.73858 21.1322,7.07191 19,8.5C 18.7216,7.5842 18.2216,6.91753 17.5,6.5C 17.3284,5.50838 17.6618,4.84171 18.5,4.5C 19.2506,5.57346 20.2506,5.74012 21.5,5C 23.3731,4.04707 23.7065,2.8804 22.5,1.5C 23.209,0.596028 24.209,0.262695 25.5,0.5C 25.5,1.83333 25.5,3.16667 25.5,4.5 Z"/></g>
<g><path style="opacity:0.904" fill="#e2e2e2" d="M 13.5,2.5 C 13.8333,2.5 14.1667,2.5 14.5,2.5C 13.9862,4.36637 13.3195,6.19971 12.5,8C 12.6834,9.68357 13.3501,9.85024 14.5,8.5C 13.78,12.1575 12.28,12.8242 10,10.5C 9.04707,12.3731 7.8804,12.7065 6.5,11.5C 6.5,10.8333 6.5,10.1667 6.5,9.5C 10.3628,8.82882 12.6961,6.49548 13.5,2.5 Z"/></g>
<g><path style="opacity:0.906" fill="#e8e8e8" d="M 19.5,1.5 C 18.8902,2.39105 18.5569,3.39105 18.5,4.5C 17.6618,4.84171 17.3284,5.50838 17.5,6.5C 17.5,7.16667 17.5,7.83333 17.5,8.5C 16.5,7.16667 15.5,7.16667 14.5,8.5C 13.3501,9.85024 12.6834,9.68357 12.5,8C 13.3195,6.19971 13.9862,4.36637 14.5,2.5C 15.9187,1.54885 17.5853,1.21552 19.5,1.5 Z"/></g>
<g><path style="opacity:0.94" fill="#ededed" d="M 13.5,2.5 C 12.6961,6.49548 10.3628,8.82882 6.5,9.5C 6.5,7.16667 6.5,4.83333 6.5,2.5C 8.83333,2.5 11.1667,2.5 13.5,2.5 Z"/></g>
<g><path style="opacity:0.952" fill="#eaeaea" d="M 25.5,4.5 C 25.5,5.16667 25.5,5.83333 25.5,6.5C 24.0087,9.09066 21.6753,10.0907 18.5,9.5C 17.8333,9.5 17.5,9.16667 17.5,8.5C 17.5,7.83333 17.5,7.16667 17.5,6.5C 18.2216,6.91753 18.7216,7.5842 19,8.5C 21.1322,7.07191 23.2989,5.73858 25.5,4.5 Z"/></g>
<g><path style="opacity:0.938" fill="#e4e4e4" d="M 25.5,6.5 C 25.5,7.5 25.5,8.5 25.5,9.5C 24.6618,9.84171 24.3284,10.5084 24.5,11.5C 22.5,11.5 20.5,11.5 18.5,11.5C 18.5,10.8333 18.5,10.1667 18.5,9.5C 21.6753,10.0907 24.0087,9.09066 25.5,6.5 Z"/></g>
<g><path style="opacity:0.925" fill="#d9d9d9" d="M 17.5,8.5 C 17.5,9.16667 17.8333,9.5 18.5,9.5C 18.5,10.1667 18.5,10.8333 18.5,11.5C 16.6203,11.2291 15.287,11.8958 14.5,13.5C 13.5,13.5 12.5,13.5 11.5,13.5C 9.39678,14.3504 7.39678,15.3504 5.5,16.5C 5.5,16.1667 5.5,15.8333 5.5,15.5C 6.43448,14.4324 6.76781,13.099 6.5,11.5C 7.8804,12.7065 9.04707,12.3731 10,10.5C 12.28,12.8242 13.78,12.1575 14.5,8.5C 15.5,7.16667 16.5,7.16667 17.5,8.5 Z"/></g>
<g><path style="opacity:0.958" fill="#d6d6d6" d="M 25.5,9.5 C 25.5,12.1667 25.5,14.8333 25.5,17.5C 24.6829,19.9686 24.1829,22.6353 24,25.5C 23.7305,22.7759 23.2305,20.1092 22.5,17.5C 19.7363,16.1181 17.0696,14.7848 14.5,13.5C 15.287,11.8958 16.6203,11.2291 18.5,11.5C 19.784,13.6138 21.784,14.6138 24.5,14.5C 24.5,13.5 24.5,12.5 24.5,11.5C 24.3284,10.5084 24.6618,9.84171 25.5,9.5 Z"/></g>
<g><path style="opacity:0.97" fill="#dddddd" d="M 18.5,11.5 C 20.5,11.5 22.5,11.5 24.5,11.5C 24.5,12.5 24.5,13.5 24.5,14.5C 21.784,14.6138 19.784,13.6138 18.5,11.5 Z"/></g>
<g><path style="opacity:1" fill="#e4e6e7" d="M 11.5,13.5 C 11.5,14.1667 11.8333,14.5 12.5,14.5C 12.5,14.8333 12.5,15.1667 12.5,15.5C 8.80756,15.6952 6.97423,17.6952 7,21.5C 5.73082,20.0953 5.23082,18.4286 5.5,16.5C 7.39678,15.3504 9.39678,14.3504 11.5,13.5 Z"/></g>
<g><path style="opacity:0.956" fill="#cccccc" d="M 11.5,13.5 C 12.5,13.5 13.5,13.5 14.5,13.5C 17.0696,14.7848 19.7363,16.1181 22.5,17.5C 23.2305,20.1092 23.7305,22.7759 24,25.5C 24.1829,22.6353 24.6829,19.9686 25.5,17.5C 25.6646,20.5184 25.498,23.5184 25,26.5C 24.6174,27.056 24.1174,27.3893 23.5,27.5C 22.6618,27.1583 22.3284,26.4916 22.5,25.5C 22.5,24.5 22.5,23.5 22.5,22.5C 21.5,22.5 20.5,22.5 19.5,22.5C 18.9556,20.4205 18.1223,18.4205 17,16.5C 16.3292,15.7476 15.4959,15.4142 14.5,15.5C 13.8333,15.1667 13.1667,14.8333 12.5,14.5C 11.8333,14.5 11.5,14.1667 11.5,13.5 Z"/></g>
<g><path style="opacity:0.907" fill="#cbcdce" d="M 14.5,19.5 C 13.8002,22.1999 12.1336,23.8666 9.5,24.5C 8.83333,24.5 8.16667,24.5 7.5,24.5C 7.57735,23.2502 8.24402,22.4169 9.5,22C 8.16667,20.6667 8.16667,19.3333 9.5,18C 11.4952,17.3872 13.1619,17.8872 14.5,19.5 Z"/></g>
<g><path style="opacity:0.924" fill="#aeafb0" d="M 14.5,15.5 C 15.4959,15.4142 16.3292,15.7476 17,16.5C 18.1223,18.4205 18.9556,20.4205 19.5,22.5C 18.0778,24.5117 16.7445,26.5117 15.5,28.5C 15.1667,28.5 14.8333,28.5 14.5,28.5C 14.5,26.5 13.5,25.5 11.5,25.5C 13.7182,24.9841 15.7182,23.9841 17.5,22.5C 15.6155,21.8027 15.2822,20.8027 16.5,19.5C 15.8201,18.1401 15.1534,16.8068 14.5,15.5 Z"/></g>
<g><path style="opacity:1" fill="#a5a8a9" d="M 5.5,15.5 C 5.5,15.8333 5.5,16.1667 5.5,16.5C 5.23082,18.4286 5.73082,20.0953 7,21.5C 6.97423,17.6952 8.80756,15.6952 12.5,15.5C 13.6005,16.6049 14.2671,17.9382 14.5,19.5C 13.1619,17.8872 11.4952,17.3872 9.5,18C 8.16667,19.3333 8.16667,20.6667 9.5,22C 8.24402,22.4169 7.57735,23.2502 7.5,24.5C 6.88258,24.3893 6.38258,24.056 6,23.5C 5.50649,25.1341 5.33982,26.8008 5.5,28.5C 4.56552,27.4324 4.23219,26.099 4.5,24.5C 4.71351,22.8561 4.38017,21.3561 3.5,20C 4.09891,18.3775 4.76558,16.8775 5.5,15.5 Z"/></g>
<g><path style="opacity:1" fill="#d1d7dc" d="M 12.5,14.5 C 13.1667,14.8333 13.8333,15.1667 14.5,15.5C 15.1534,16.8068 15.8201,18.1401 16.5,19.5C 15.2822,20.8027 15.6155,21.8027 17.5,22.5C 15.7182,23.9841 13.7182,24.9841 11.5,25.5C 10.8333,25.1667 10.1667,24.8333 9.5,24.5C 12.1336,23.8666 13.8002,22.1999 14.5,19.5C 14.2671,17.9382 13.6005,16.6049 12.5,15.5C 12.5,15.1667 12.5,14.8333 12.5,14.5 Z"/></g>
<g><path style="opacity:0.964" fill="#c2c4c6" d="M 19.5,22.5 C 20.5,22.5 21.5,22.5 22.5,22.5C 22.5,23.5 22.5,24.5 22.5,25.5C 20.0462,26.2271 17.7128,27.2271 15.5,28.5C 16.7445,26.5117 18.0778,24.5117 19.5,22.5 Z"/></g>
<g><path style="opacity:0.919" fill="#cacaca" d="M 7.5,24.5 C 11.6623,26.6998 11.3289,28.0332 6.5,28.5C 6.16667,28.5 5.83333,28.5 5.5,28.5C 5.33982,26.8008 5.50649,25.1341 6,23.5C 6.38258,24.056 6.88258,24.3893 7.5,24.5 Z"/></g>
<g><path style="opacity:0.037" fill="#050505" d="M 4.5,24.5 C 4.23219,26.099 4.56552,27.4324 5.5,28.5C 5.83333,28.5 6.16667,28.5 6.5,28.5C 6.5,28.8333 6.5,29.1667 6.5,29.5C 4.31928,29.7163 2.65262,28.883 1.5,27C 2.07794,25.583 3.07794,24.7496 4.5,24.5 Z"/></g>
<g><path style="opacity:0.937" fill="#b8b8b8" d="M 7.5,24.5 C 8.16667,24.5 8.83333,24.5 9.5,24.5C 10.1667,24.8333 10.8333,25.1667 11.5,25.5C 13.5,25.5 14.5,26.5 14.5,28.5C 11.8822,28.7792 9.38216,29.4459 7,30.5C 6.60123,30.2716 6.43456,29.9382 6.5,29.5C 6.5,29.1667 6.5,28.8333 6.5,28.5C 11.3289,28.0332 11.6623,26.6998 7.5,24.5 Z"/></g>
<g><path style="opacity:0.625" fill="#a1a1a1" d="M 22.5,25.5 C 22.3284,26.4916 22.6618,27.1583 23.5,27.5C 22.5,28.8333 21.5,30.1667 20.5,31.5C 19.8333,31.5 19.1667,31.5 18.5,31.5C 17.9002,30.1001 16.9002,29.1001 15.5,28.5C 17.7128,27.2271 20.0462,26.2271 22.5,25.5 Z"/></g>
</svg>
