<?xml version="1.0" encoding="UTF-8"?>
<!DOCTYPE svg PUBLIC "-//W3C//DTD SVG 1.1//EN" "http://www.w3.org/Graphics/SVG/1.1/DTD/svg11.dtd">
<svg xmlns="http://www.w3.org/2000/svg" version="1.1" width="24px" height="24px" style="shape-rendering:geometricPrecision; text-rendering:geometricPrecision; image-rendering:optimizeQuality; fill-rule:evenodd; clip-rule:evenodd" xmlns:xlink="http://www.w3.org/1999/xlink">
<g><path style="opacity:1" fill="#ebe9e7" d="M 19.5,3.5 C 18.8333,4.5 18.1667,5.5 17.5,6.5C 13.4741,10.1949 9.47408,13.8616 5.5,17.5C 4.77842,17.9175 4.27842,18.5842 4,19.5C 3.50058,13.8431 3.33391,8.17645 3.5,2.5C 9.02621,2.17859 14.3595,2.51192 19.5,3.5 Z"/></g>
<g><path style="opacity:1" fill="#9c845b" d="M 21.5,3.5 C 20.8333,3.5 20.1667,3.5 19.5,3.5C 14.3595,2.51192 9.02621,2.17859 3.5,2.5C 3.33391,8.17645 3.50058,13.8431 4,19.5C 4.27842,18.5842 4.77842,17.9175 5.5,17.5C 5.5,18.1667 5.5,18.8333 5.5,19.5C 5.83333,20.1667 6.16667,20.8333 6.5,21.5C 4.83333,21.5 3.16667,21.5 1.5,21.5C 1.16998,14.8002 1.50331,8.13354 2.5,1.5C 7.77975,0.382176 13.1131,0.215509 18.5,1C 20.1193,1.23555 21.1193,2.06888 21.5,3.5 Z"/></g>
<g><path style="opacity:1" fill="#eba738" d="M 17.5,6.5 C 18.0431,6.55999 18.3764,6.89333 18.5,7.5C 17.4756,8.85181 16.4756,10.1851 15.5,11.5C 12.4181,13.3719 9.75143,15.7052 7.5,18.5C 6.83333,18.8333 6.16667,19.1667 5.5,19.5C 5.5,18.8333 5.5,18.1667 5.5,17.5C 9.47408,13.8616 13.4741,10.1949 17.5,6.5 Z"/></g>
<g><path style="opacity:1" fill="#f0efef" d="M 15.5,11.5 C 16.4731,13.9479 16.8064,16.6146 16.5,19.5C 13.2869,19.81 10.2869,19.4767 7.5,18.5C 9.75143,15.7052 12.4181,13.3719 15.5,11.5 Z"/></g>
<g><path style="opacity:1" fill="#d5d2d0" d="M 19.5,3.5 C 20.1667,3.5 20.8333,3.5 21.5,3.5C 22.8333,9.5 22.8333,15.5 21.5,21.5C 21.6659,16.4889 21.4993,11.4889 21,6.5C 20.6667,11.1667 20.3333,15.8333 20,20.5C 15.5986,21.4667 11.0986,21.8 6.5,21.5C 6.16667,20.8333 5.83333,20.1667 5.5,19.5C 6.16667,19.1667 6.83333,18.8333 7.5,18.5C 10.2869,19.4767 13.2869,19.81 16.5,19.5C 16.8064,16.6146 16.4731,13.9479 15.5,11.5C 16.4756,10.1851 17.4756,8.85181 18.5,7.5C 18.3764,6.89333 18.0431,6.55999 17.5,6.5C 18.1667,5.5 18.8333,4.5 19.5,3.5 Z"/></g>
<g><path style="opacity:0.522" fill="#665d50" d="M 21.5,21.5 C 21.1667,22.1667 20.8333,22.8333 20.5,23.5C 14.8333,23.5 9.16667,23.5 3.5,23.5C 2.83333,22.8333 2.16667,22.1667 1.5,21.5C 3.16667,21.5 4.83333,21.5 6.5,21.5C 11.0986,21.8 15.5986,21.4667 20,20.5C 20.3333,15.8333 20.6667,11.1667 21,6.5C 21.4993,11.4889 21.6659,16.4889 21.5,21.5 Z"/></g>
</svg>
