<?xml version="1.0" encoding="UTF-8"?>
<!DOCTYPE svg PUBLIC "-//W3C//DTD SVG 1.1//EN" "http://www.w3.org/Graphics/SVG/1.1/DTD/svg11.dtd">
<svg xmlns="http://www.w3.org/2000/svg" version="1.1" width="24px" height="24px" style="shape-rendering:geometricPrecision; text-rendering:geometricPrecision; image-rendering:optimizeQuality; fill-rule:evenodd; clip-rule:evenodd" xmlns:xlink="http://www.w3.org/1999/xlink">
<g><path style="opacity:0.565" fill="#6a6c6d" d="M -0.5,-0.5 C 3.16667,-0.5 6.83333,-0.5 10.5,-0.5C 10.5,7.5 10.5,15.5 10.5,23.5C 6.83333,23.5 3.16667,23.5 -0.5,23.5C -0.5,15.5 -0.5,7.5 -0.5,-0.5 Z M 0.5,0.5 C 3.16667,0.5 5.83333,0.5 8.5,0.5C 8.5,7.83333 8.5,15.1667 8.5,22.5C 5.83333,22.5 3.16667,22.5 0.5,22.5C 0.5,15.1667 0.5,7.83333 0.5,0.5 Z"/></g>
<g><path style="opacity:0.565" fill="#6a6c6d" d="M 12.5,-0.5 C 16.1667,-0.5 19.8333,-0.5 23.5,-0.5C 23.5,7.5 23.5,15.5 23.5,23.5C 19.8333,23.5 16.1667,23.5 12.5,23.5C 12.5,15.5 12.5,7.5 12.5,-0.5 Z M 14.5,0.5 C 17.1667,0.5 19.8333,0.5 22.5,0.5C 22.5,7.83333 22.5,15.1667 22.5,22.5C 19.8333,22.5 17.1667,22.5 14.5,22.5C 14.5,15.1667 14.5,7.83333 14.5,0.5 Z"/></g>
</svg>
