<?xml version="1.0" encoding="UTF-8"?>
<!DOCTYPE svg PUBLIC "-//W3C//DTD SVG 1.1//EN" "http://www.w3.org/Graphics/SVG/1.1/DTD/svg11.dtd">
<svg xmlns="http://www.w3.org/2000/svg" version="1.1" width="25px" height="32px" style="shape-rendering:geometricPrecision; text-rendering:geometricPrecision; image-rendering:optimizeQuality; fill-rule:evenodd; clip-rule:evenodd" xmlns:xlink="http://www.w3.org/1999/xlink">
<g><path style="opacity:0.938" fill="#1e1e1e" d="M -0.5,-0.5 C 5.5,-0.5 11.5,-0.5 17.5,-0.5C 19.5,2.16667 21.8333,4.5 24.5,6.5C 24.5,14.8333 24.5,23.1667 24.5,31.5C 16.1667,31.5 7.83333,31.5 -0.5,31.5C -0.5,20.8333 -0.5,10.1667 -0.5,-0.5 Z"/></g>
<g><path style="opacity:1" fill="#a0a0a0" d="M 14.5,10.5 C 17.1667,10.5 19.8333,10.5 22.5,10.5C 22.5,16.5 22.5,22.5 22.5,28.5C 15.8333,28.5 9.16667,28.5 2.5,28.5C 2.5,19.8333 2.5,11.1667 2.5,2.5C 6.5,2.5 10.5,2.5 14.5,2.5C 14.5,5.16667 14.5,7.83333 14.5,10.5 Z"/></g>
<g><path style="opacity:1" fill="#d0d0d0" d="M 14.5,10.5 C 16.6074,11.4682 18.9407,11.8016 21.5,11.5C 21.5,16.8333 21.5,22.1667 21.5,27.5C 15.5,27.5 9.5,27.5 3.5,27.5C 3.5,19.5 3.5,11.5 3.5,3.5C 6.83333,3.5 10.1667,3.5 13.5,3.5C 13.1984,6.0593 13.5318,8.39263 14.5,10.5 Z"/></g>
<g><path style="opacity:1" fill="#6c6c6c" d="M 5.5,21.5 C 10.1667,21.5 14.8333,21.5 19.5,21.5C 19.5,22.8333 19.5,24.1667 19.5,25.5C 14.8333,25.5 10.1667,25.5 5.5,25.5C 5.5,24.1667 5.5,22.8333 5.5,21.5 Z"/></g>
<g><path style="opacity:1" fill="#191919" d="M 6.5,22.5 C 10.5546,22.1758 14.5546,22.5091 18.5,23.5C 16.5,23.8333 14.5,24.1667 12.5,24.5C 10.0478,24.4609 8.04775,23.7943 6.5,22.5 Z"/></g>
<g><path style="opacity:1" fill="#999999" d="M 6.5,15.5 C 6.5,16.5 6.5,17.5 6.5,18.5C 10.5,18.5 14.5,18.5 18.5,18.5C 18.5,17.5 18.5,16.5 18.5,15.5C 19.4345,16.5676 19.7678,17.901 19.5,19.5C 14.8333,19.5 10.1667,19.5 5.5,19.5C 5.23219,17.901 5.56552,16.5676 6.5,15.5 Z"/></g>
<g><path style="opacity:0.999" fill="#222222" d="M 6.5,15.5 C 10.5,15.5 14.5,15.5 18.5,15.5C 18.5,16.5 18.5,17.5 18.5,18.5C 14.5,18.5 10.5,18.5 6.5,18.5C 6.5,17.5 6.5,16.5 6.5,15.5 Z"/></g>
</svg>
