<?xml version="1.0" encoding="UTF-8"?>
<!DOCTYPE svg PUBLIC "-//W3C//DTD SVG 1.1//EN" "http://www.w3.org/Graphics/SVG/1.1/DTD/svg11.dtd">
<svg xmlns="http://www.w3.org/2000/svg" version="1.1" width="24px" height="24px" style="shape-rendering:geometricPrecision; text-rendering:geometricPrecision; image-rendering:optimizeQuality; fill-rule:evenodd; clip-rule:evenodd" xmlns:xlink="http://www.w3.org/1999/xlink">
<g><path style="opacity:0.68" fill="#000000" d="M -0.5,-0.5 C 1.16667,-0.5 2.83333,-0.5 4.5,-0.5C 7.96192,0.481638 11.6286,0.814971 15.5,0.5C 15.5,1.5 15.5,2.5 15.5,3.5C 17.1667,2.5 18.5,1.16667 19.5,-0.5C 20.5,-0.5 21.5,-0.5 22.5,-0.5C 22.5,0.166667 22.8333,0.5 23.5,0.5C 23.5,1.5 23.5,2.5 23.5,3.5C 21.8333,4.5 20.5,5.83333 19.5,7.5C 20.5,7.5 21.5,7.5 22.5,7.5C 22.185,11.3714 22.5184,15.0381 23.5,18.5C 23.5,20.1667 23.5,21.8333 23.5,23.5C 21.8333,23.5 20.1667,23.5 18.5,23.5C 13.8333,22.1667 9.16667,22.1667 4.5,23.5C 2.83333,23.5 1.16667,23.5 -0.5,23.5C -0.5,21.8333 -0.5,20.1667 -0.5,18.5C 0.833333,13.8333 0.833333,9.16667 -0.5,4.5C -0.5,2.83333 -0.5,1.16667 -0.5,-0.5 Z M 1.5,1.5 C 3.33702,1.63945 3.67036,2.30612 2.5,3.5C 1.70245,3.04311 1.36912,2.37644 1.5,1.5 Z M 15.5,3.5 C 13.7059,5.79663 11.7059,7.9633 9.5,10C 7.57529,9.86506 5.57529,9.6984 3.5,9.5C 3.26057,7.5328 3.59391,5.69946 4.5,4C 8.15159,3.50137 11.8183,3.3347 15.5,3.5 Z M 19.5,7.5 C 19.6653,11.1817 19.4986,14.8484 19,18.5C 17.3005,19.4061 15.4672,19.7394 13.5,19.5C 13.6427,17.7376 13.3094,16.0709 12.5,14.5C 14.5211,11.8122 16.8544,9.47889 19.5,7.5 Z M 7.5,13.5 C 7.5,14.8333 8.16667,15.5 9.5,15.5C 9.5,16.8333 9.5,18.1667 9.5,19.5C 4.5,20.5 2.5,18.5 3.5,13.5C 4.83333,13.5 6.16667,13.5 7.5,13.5 Z M 1.5,19.5 C 3.33702,19.6395 3.67036,20.3061 2.5,21.5C 1.70245,21.0431 1.36912,20.3764 1.5,19.5 Z M 19.5,19.5 C 21.337,19.6395 21.6704,20.3061 20.5,21.5C 19.7025,21.0431 19.3691,20.3764 19.5,19.5 Z"/></g>
</svg>
