
<svg xmlns="http://www.w3.org/2000/svg" version="1.1" width="24px" height="24px" style="shape-rendering:geometricPrecision; text-rendering:geometricPrecision; image-rendering:optimizeQuality; fill-rule:evenodd; clip-rule:evenodd" xmlns:xlink="http://www.w3.org/1999/xlink">
<g><path style="opacity:1" fill="#757575" d="M -0.5,0.5 C -0.166667,0.5 0.166667,0.5 0.5,0.5C 7.50793,0.333711 14.5079,0.500377 21.5,1C 16.5111,1.49926 11.5111,1.66593 6.5,1.5C 5.31213,2.6843 4.14547,2.6843 3,1.5C 1.81181,2.56341 1.31181,3.89674 1.5,5.5C 1.5,10.8333 1.5,16.1667 1.5,21.5C 1.5,22.1667 1.16667,22.5 0.5,22.5C 0.166667,22.5 -0.166667,22.5 -0.5,22.5C -0.5,15.1667 -0.5,7.83333 -0.5,0.5 Z"/></g>
<g><path style="opacity:1" fill="#d5d6d6" d="M 6.5,1.5 C 11.3054,2.48717 16.3054,2.82051 21.5,2.5C 21.5,5.83333 21.5,9.16667 21.5,12.5C 21.1667,12.5 20.8333,12.5 20.5,12.5C 19.8501,12.8039 19.1835,13.1373 18.5,13.5C 18.2124,12.1395 17.879,10.8062 17.5,9.5C 19.1788,9.71481 20.1788,9.04814 20.5,7.5C 14.6603,6.6488 8.66031,5.98214 2.5,5.5C 2.16667,5.5 1.83333,5.5 1.5,5.5C 1.31181,3.89674 1.81181,2.56341 3,1.5C 4.14547,2.6843 5.31213,2.6843 6.5,1.5 Z"/></g>
<g><path style="opacity:1" fill="#9e9d9d" d="M 2.5,5.5 C 8.66031,5.98214 14.6603,6.6488 20.5,7.5C 14.5,7.5 8.5,7.5 2.5,7.5C 2.5,6.83333 2.5,6.16667 2.5,5.5 Z"/></g>
<g><path style="opacity:1" fill="#24a076" d="M 2.5,7.5 C 8.5,7.5 14.5,7.5 20.5,7.5C 20.1788,9.04814 19.1788,9.71481 17.5,9.5C 16.5,9.5 15.5,9.5 14.5,9.5C 10.0293,10.0894 6.0293,9.42277 2.5,7.5 Z"/></g>
<g><path style="opacity:1" fill="#344a3f" d="M 14.5,9.5 C 15.5,9.5 16.5,9.5 17.5,9.5C 17.879,10.8062 18.2124,12.1395 18.5,13.5C 19.1835,13.1373 19.8501,12.8039 20.5,12.5C 20.5,13.5 20.5,14.5 20.5,15.5C 19.1667,15.5 17.8333,15.5 16.5,15.5C 14.777,14.1999 12.6103,13.5332 10,13.5C 7.38965,13.5332 5.22299,14.1999 3.5,15.5C 2.59603,14.791 2.26269,13.791 2.5,12.5C 6.5,12.5 10.5,12.5 14.5,12.5C 14.5,11.5 14.5,10.5 14.5,9.5 Z"/></g>
<g><path style="opacity:1" fill="#d1d1d1" d="M 1.5,5.5 C 1.83333,5.5 2.16667,5.5 2.5,5.5C 2.5,6.16667 2.5,6.83333 2.5,7.5C 6.0293,9.42277 10.0293,10.0894 14.5,9.5C 14.5,10.5 14.5,11.5 14.5,12.5C 10.5,12.5 6.5,12.5 2.5,12.5C 2.26269,13.791 2.59603,14.791 3.5,15.5C 7.83333,15.5 12.1667,15.5 16.5,15.5C 17.8333,15.5 19.1667,15.5 20.5,15.5C 20.5,14.5 20.5,13.5 20.5,12.5C 20.8333,12.5 21.1667,12.5 21.5,12.5C 21.8404,15.9725 21.507,18.6391 20.5,20.5C 17.9134,19.1836 14.9134,18.517 11.5,18.5C 8.08657,18.517 5.08657,19.1836 2.5,20.5C 2.5,21.1667 2.16667,21.5 1.5,21.5C 1.5,16.1667 1.5,10.8333 1.5,5.5 Z"/></g>
<g><path style="opacity:1" fill="#139068" d="M 16.5,15.5 C 12.1667,15.5 7.83333,15.5 3.5,15.5C 5.22299,14.1999 7.38965,13.5332 10,13.5C 12.6103,13.5332 14.777,14.1999 16.5,15.5 Z"/></g>
<g><path style="opacity:1" fill="#1e956e" d="M 20.5,20.5 C 14.5,20.5 8.5,20.5 2.5,20.5C 5.08657,19.1836 8.08657,18.517 11.5,18.5C 14.9134,18.517 17.9134,19.1836 20.5,20.5 Z"/></g>
<g><path style="opacity:1" fill="#555454" d="M 0.5,0.5 C 0.5,0.166667 0.5,-0.166667 0.5,-0.5C 7.83333,-0.5 15.1667,-0.5 22.5,-0.5C 22.5,0.166667 22.8333,0.5 23.5,0.5C 23.5,7.83333 23.5,15.1667 23.5,22.5C 22.8333,22.5 22.5,22.8333 22.5,23.5C 15.1667,23.5 7.83333,23.5 0.5,23.5C 0.5,23.1667 0.5,22.8333 0.5,22.5C 1.16667,22.5 1.5,22.1667 1.5,21.5C 2.16667,21.5 2.5,21.1667 2.5,20.5C 8.5,20.5 14.5,20.5 20.5,20.5C 21.507,18.6391 21.8404,15.9725 21.5,12.5C 21.5,9.16667 21.5,5.83333 21.5,2.5C 16.3054,2.82051 11.3054,2.48717 6.5,1.5C 11.5111,1.66593 16.5111,1.49926 21.5,1C 14.5079,0.500377 7.50793,0.333711 0.5,0.5 Z"/></g>
</svg>