<?xml version="1.0" encoding="UTF-8"?>
<!DOCTYPE svg PUBLIC "-//W3C//DTD SVG 1.1//EN" "http://www.w3.org/Graphics/SVG/1.1/DTD/svg11.dtd">
<svg xmlns="http://www.w3.org/2000/svg" version="1.1" width="24px" height="24px" style="shape-rendering:geometricPrecision; text-rendering:geometricPrecision; image-rendering:optimizeQuality; fill-rule:evenodd; clip-rule:evenodd" xmlns:xlink="http://www.w3.org/1999/xlink">
<g><path style="opacity:0.961" fill="#e4e5f1" d="M 5.5,-0.5 C 10.1667,-0.5 14.8333,-0.5 19.5,-0.5C 20.5,1.16667 21.8333,2.5 23.5,3.5C 23.5,10.1667 23.5,16.8333 23.5,23.5C 17.5,23.5 11.5,23.5 5.5,23.5C 5.5,19.5 5.5,15.5 5.5,11.5C 8.96192,10.5184 12.6286,10.185 16.5,10.5C 17.4682,8.39263 17.8016,6.0593 17.5,3.5C 13.5,3.5 9.5,3.5 5.5,3.5C 5.5,2.16667 5.5,0.833333 5.5,-0.5 Z"/></g>
<g><path style="opacity:0.916" fill="#ff6b4e" d="M -0.5,3.5 C 1.5,3.5 3.5,3.5 5.5,3.5C 4.83333,4.16667 4.16667,4.83333 3.5,5.5C 2.90451,8.11253 2.07117,8.11253 1,5.5C 0.333333,6.83333 0.333333,8.16667 1,9.5C 2,8.16667 3,8.16667 4,9.5C 4.48278,8.55198 4.64945,7.55198 4.5,6.5C 5.15767,7.39836 5.82434,8.39836 6.5,9.5C 7.17566,8.39836 7.84233,7.39836 8.5,6.5C 8.35055,7.55198 8.51722,8.55198 9,9.5C 11.0266,9.01368 13.1933,9.01368 15.5,9.5C 16.1667,9.5 16.5,9.83333 16.5,10.5C 12.6286,10.185 8.96192,10.5184 5.5,11.5C 3.5,11.5 1.5,11.5 -0.5,11.5C -0.5,8.83333 -0.5,6.16667 -0.5,3.5 Z"/></g>
<g><path style="opacity:1" fill="#fd9b90" d="M 5.5,3.5 C 9.5,3.5 13.5,3.5 17.5,3.5C 17.8016,6.0593 17.4682,8.39263 16.5,10.5C 16.5,9.83333 16.1667,9.5 15.5,9.5C 15.5,9.16667 15.5,8.83333 15.5,8.5C 16.4345,7.43236 16.7678,6.09903 16.5,4.5C 13.9407,4.19845 11.6074,4.53178 9.5,5.5C 8.83333,5.5 8.5,5.83333 8.5,6.5C 7.84233,7.39836 7.17566,8.39836 6.5,9.5C 5.82434,8.39836 5.15767,7.39836 4.5,6.5C 4.5,5.83333 4.16667,5.5 3.5,5.5C 4.16667,4.83333 4.83333,4.16667 5.5,3.5 Z"/></g>
<g><path style="opacity:1" fill="#ff6f54" d="M 15.5,8.5 C 14.596,7.79105 14.2627,6.79105 14.5,5.5C 12.602,6.09647 10.9354,6.09647 9.5,5.5C 11.6074,4.53178 13.9407,4.19845 16.5,4.5C 16.7678,6.09903 16.4345,7.43236 15.5,8.5 Z"/></g>
<g><path style="opacity:0.992" fill="#ffcfc9" d="M 9.5,5.5 C 10.9354,6.09647 12.602,6.09647 14.5,5.5C 14.2627,6.79105 14.596,7.79105 15.5,8.5C 15.5,8.83333 15.5,9.16667 15.5,9.5C 13.1933,9.01368 11.0266,9.01368 9,9.5C 8.51722,8.55198 8.35055,7.55198 8.5,6.5C 8.5,5.83333 8.83333,5.5 9.5,5.5 Z"/></g>
<g><path style="opacity:1" fill="#ffe9e7" d="M 3.5,5.5 C 4.16667,5.5 4.5,5.83333 4.5,6.5C 4.64945,7.55198 4.48278,8.55198 4,9.5C 3,8.16667 2,8.16667 1,9.5C 0.333333,8.16667 0.333333,6.83333 1,5.5C 2.07117,8.11253 2.90451,8.11253 3.5,5.5 Z"/></g>
<g><path style="opacity:0.997" fill="#f5acaa" d="M 15.5,15.5 C 15.369,14.7611 15.5357,14.0944 16,13.5C 17.7713,14.3041 19.2713,15.4708 20.5,17C 18.2414,20.274 17.408,20.1073 18,16.5C 17.3292,15.7476 16.4959,15.4142 15.5,15.5 Z"/></g>
<g><path style="opacity:0.988" fill="#f2bbbc" d="M 15.5,15.5 C 14.4708,23.0314 12.6375,23.3648 10,16.5C 11,17.5 12,18.5 13,19.5C 13.6082,17.9336 14.4415,16.6002 15.5,15.5 Z"/></g>
</svg>
