<?xml version="1.0" encoding="UTF-8"?>
<!DOCTYPE svg PUBLIC "-//W3C//DTD SVG 1.1//EN" "http://www.w3.org/Graphics/SVG/1.1/DTD/svg11.dtd">
<svg xmlns="http://www.w3.org/2000/svg" version="1.1" width="32px" height="27px" style="shape-rendering:geometricPrecision; text-rendering:geometricPrecision; image-rendering:optimizeQuality; fill-rule:evenodd; clip-rule:evenodd" xmlns:xlink="http://www.w3.org/1999/xlink">
<g><path style="opacity:0.524" fill="#000000" d="M -0.5,-0.5 C 10.1667,-0.5 20.8333,-0.5 31.5,-0.5C 31.5,7.83333 31.5,16.1667 31.5,24.5C 27.8183,24.3347 24.1516,24.5014 20.5,25C 21.056,25.3826 21.3893,25.8826 21.5,26.5C 17.5,26.5 13.5,26.5 9.5,26.5C 9.61071,25.8826 9.94404,25.3826 10.5,25C 6.84841,24.5014 3.18174,24.3347 -0.5,24.5C -0.5,16.1667 -0.5,7.83333 -0.5,-0.5 Z M 9.5,1.5 C 10.8086,3.57056 11.4752,6.07056 11.5,9C 11.1667,11.5 10.8333,14 10.5,16.5C 9.50585,11.544 9.17252,6.54396 9.5,1.5 Z M 19.5,1.5 C 20.8086,3.57056 21.4752,6.07056 21.5,9C 21.1667,11.5 20.8333,14 20.5,16.5C 19.5059,11.544 19.1725,6.54396 19.5,1.5 Z M 3.5,3.5 C 4.5,3.5 5.5,3.5 6.5,3.5C 6.5,4.5 6.5,5.5 6.5,6.5C 5.5,6.5 4.5,6.5 3.5,6.5C 3.5,5.5 3.5,4.5 3.5,3.5 Z M 13.5,3.5 C 14.8333,3.5 16.1667,3.5 17.5,3.5C 17.5,7.16667 17.5,10.8333 17.5,14.5C 16.1667,14.5 14.8333,14.5 13.5,14.5C 13.5,10.8333 13.5,7.16667 13.5,3.5 Z M 24.5,3.5 C 25.5,3.5 26.5,3.5 27.5,3.5C 27.5,7.16667 27.5,10.8333 27.5,14.5C 26.5,14.5 25.5,14.5 24.5,14.5C 24.5,10.8333 24.5,7.16667 24.5,3.5 Z M 3.5,11.5 C 4.5,11.5 5.5,11.5 6.5,11.5C 6.5,12.5 6.5,13.5 6.5,14.5C 5.5,14.5 4.5,14.5 3.5,14.5C 3.5,13.5 3.5,12.5 3.5,11.5 Z M 1.5,19.5 C 5.55461,19.1758 9.55461,19.5091 13.5,20.5C 11.5,20.8333 9.5,21.1667 7.5,21.5C 5.04775,21.4609 3.04775,20.7943 1.5,19.5 Z M 17.5,19.5 C 21.5546,19.1758 25.5546,19.5091 29.5,20.5C 27.5,20.8333 25.5,21.1667 23.5,21.5C 21.0478,21.4609 19.0478,20.7943 17.5,19.5 Z"/></g>
</svg>
