<?xml version="1.0" encoding="UTF-8"?>
<!DOCTYPE svg PUBLIC "-//W3C//DTD SVG 1.1//EN" "http://www.w3.org/Graphics/SVG/1.1/DTD/svg11.dtd">
<svg xmlns="http://www.w3.org/2000/svg" version="1.1" width="32px" height="32px" style="shape-rendering:geometricPrecision; text-rendering:geometricPrecision; image-rendering:optimizeQuality; fill-rule:evenodd; clip-rule:evenodd" xmlns:xlink="http://www.w3.org/1999/xlink">
<g><path style="opacity:1" fill="#efefef" d="M 1.5,-0.5 C 7.5,-0.5 13.5,-0.5 19.5,-0.5C 17.7152,6.08648 20.0485,9.75315 26.5,10.5C 26.5,13.8333 26.5,17.1667 26.5,20.5C 19.1091,20.9704 11.7758,20.9704 4.5,20.5C 3.51592,23.4281 3.18259,26.4281 3.5,29.5C 3.16667,29.5 2.83333,29.5 2.5,29.5C 2.16667,29.5 1.83333,29.5 1.5,29.5C 1.5,19.5 1.5,9.5 1.5,-0.5 Z"/></g>
<g><path style="opacity:1" fill="#fbfbfb" d="M 2.5,0.5 C 7.54396,0.172521 12.544,0.505854 17.5,1.5C 16.33,4.53055 16.9967,7.19722 19.5,9.5C 21.2199,10.934 23.2199,11.7674 25.5,12C 21.8471,13.1343 18.0137,13.6343 14,13.5C 10.5,13.1667 7,12.8333 3.5,12.5C 2.56716,8.57051 2.23383,4.57051 2.5,0.5 Z"/></g>
<g><path style="opacity:1" fill="#e2e2e2" d="M 19.5,-0.5 C 19.8333,-0.5 20.1667,-0.5 20.5,-0.5C 22.8333,2.16667 25.1667,4.83333 27.5,7.5C 27.5,14.8333 27.5,22.1667 27.5,29.5C 19.5,29.5 11.5,29.5 3.5,29.5C 3.18259,26.4281 3.51592,23.4281 4.5,20.5C 11.7758,20.9704 19.1091,20.9704 26.5,20.5C 26.5,17.1667 26.5,13.8333 26.5,10.5C 20.0485,9.75315 17.7152,6.08648 19.5,-0.5 Z"/></g>
<g><path style="opacity:0.859" fill="#5f5f5f" d="M 27.5,7.5 C 28.8333,15.1667 28.8333,22.8333 27.5,30.5C 18.9832,30.8261 10.6499,30.4927 2.5,29.5C 2.83333,29.5 3.16667,29.5 3.5,29.5C 11.5,29.5 19.5,29.5 27.5,29.5C 27.5,22.1667 27.5,14.8333 27.5,7.5 Z"/></g>
<g><path style="opacity:0.144" fill="#030303" d="M 1.5,29.5 C 1.83333,29.5 2.16667,29.5 2.5,29.5C 10.6499,30.4927 18.9832,30.8261 27.5,30.5C 27.5,30.8333 27.5,31.1667 27.5,31.5C 18.8333,31.5 10.1667,31.5 1.5,31.5C 1.5,30.8333 1.5,30.1667 1.5,29.5 Z"/></g>
</svg>
