<?xml version="1.0" encoding="UTF-8"?>
<!DOCTYPE svg PUBLIC "-//W3C//DTD SVG 1.1//EN" "http://www.w3.org/Graphics/SVG/1.1/DTD/svg11.dtd">
<svg xmlns="http://www.w3.org/2000/svg" version="1.1" width="24px" height="24px" style="shape-rendering:geometricPrecision; text-rendering:geometricPrecision; image-rendering:optimizeQuality; fill-rule:evenodd; clip-rule:evenodd" xmlns:xlink="http://www.w3.org/1999/xlink">
<g><path style="opacity:0.004" fill="#434443" d="M 20.5,1.5 C 21.8333,2.16667 21.8333,2.16667 20.5,1.5 Z"/></g>
<g><path style="opacity:0.765" fill="#434443" d="M -0.5,2.5 C 6.5,2.5 13.5,2.5 20.5,2.5C 20.5,3.5 20.5,4.5 20.5,5.5C 21.5,5.5 22.5,5.5 23.5,5.5C 23.5,11.1667 23.5,16.8333 23.5,22.5C 15.5,22.5 7.5,22.5 -0.5,22.5C -0.5,15.8333 -0.5,9.16667 -0.5,2.5 Z M 1.5,4.5 C 3.16667,4.5 4.83333,4.5 6.5,4.5C 6.5,5.5 6.5,6.5 6.5,7.5C 11.5,7.5 16.5,7.5 21.5,7.5C 21.5,11.8333 21.5,16.1667 21.5,20.5C 14.8333,20.5 8.16667,20.5 1.5,20.5C 1.5,15.1667 1.5,9.83333 1.5,4.5 Z"/></g>
</svg>
