<?xml version="1.0" encoding="UTF-8"?>
<!DOCTYPE svg PUBLIC "-//W3C//DTD SVG 1.1//EN" "http://www.w3.org/Graphics/SVG/1.1/DTD/svg11.dtd">
<svg xmlns="http://www.w3.org/2000/svg" version="1.1" width="24px" height="24px" style="shape-rendering:geometricPrecision; text-rendering:geometricPrecision; image-rendering:optimizeQuality; fill-rule:evenodd; clip-rule:evenodd" xmlns:xlink="http://www.w3.org/1999/xlink">
<g><path style="opacity:0.895" fill="#e7e7e7" d="M -0.5,-0.5 C 4.16667,-0.5 8.83333,-0.5 13.5,-0.5C 13.5,1.16667 13.5,2.83333 13.5,4.5C 15.4147,4.78448 17.0813,4.45115 18.5,3.5C 19.404,4.20895 19.7373,5.20895 19.5,6.5C 18.1667,7.5 18.1667,8.5 19.5,9.5C 18.2223,9.78219 17.2223,10.4489 16.5,11.5C 10.8333,11.5 5.16667,11.5 -0.5,11.5C -0.5,7.5 -0.5,3.5 -0.5,-0.5 Z"/></g>
<g><path style="opacity:1" fill="#61a0c8" d="M 13.5,-0.5 C 14.1667,-0.5 14.8333,-0.5 15.5,-0.5C 16.5,0.833333 17.5,2.16667 18.5,3.5C 17.0813,4.45115 15.4147,4.78448 13.5,4.5C 13.5,2.83333 13.5,1.16667 13.5,-0.5 Z"/></g>
<g><path style="opacity:1" fill="#e96960" d="M 19.5,6.5 C 21.0618,6.73286 22.3951,7.39952 23.5,8.5C 23.5,9.83333 23.5,11.1667 23.5,12.5C 23.1667,12.5 22.8333,12.5 22.5,12.5C 21.6935,11.2719 20.6935,10.2719 19.5,9.5C 18.1667,8.5 18.1667,7.5 19.5,6.5 Z"/></g>
<g><path style="opacity:0.967" fill="#d6d6d6" d="M -0.5,11.5 C 5.16667,11.5 10.8333,11.5 16.5,11.5C 13.873,14.8128 14.873,16.8128 19.5,17.5C 19.6747,19.6208 19.3414,21.6208 18.5,23.5C 12.1667,23.5 5.83333,23.5 -0.5,23.5C -0.5,19.5 -0.5,15.5 -0.5,11.5 Z"/></g>
<g><path style="opacity:0.812" fill="#ea9d29" d="M 19.5,9.5 C 20.6935,10.2719 21.6935,11.2719 22.5,12.5C 21.2485,14.0009 20.2485,15.6675 19.5,17.5C 14.873,16.8128 13.873,14.8128 16.5,11.5C 17.2223,10.4489 18.2223,9.78219 19.5,9.5 Z"/></g>
</svg>
