<?xml version="1.0" encoding="UTF-8"?>
<!DOCTYPE svg PUBLIC "-//W3C//DTD SVG 1.1//EN" "http://www.w3.org/Graphics/SVG/1.1/DTD/svg11.dtd">
<svg xmlns="http://www.w3.org/2000/svg" version="1.1" width="24px" height="24px" style="shape-rendering:geometricPrecision; text-rendering:geometricPrecision; image-rendering:optimizeQuality; fill-rule:evenodd; clip-rule:evenodd" xmlns:xlink="http://www.w3.org/1999/xlink">
<g><path style="opacity:0.916" fill="#81d2eb" d="M 6.5,-0.5 C 9.83333,-0.5 13.1667,-0.5 16.5,-0.5C 19.1667,1.5 21.5,3.83333 23.5,6.5C 23.5,9.83333 23.5,13.1667 23.5,16.5C 21.5,19.1667 19.1667,21.5 16.5,23.5C 13.1667,23.5 9.83333,23.5 6.5,23.5C 3.83333,21.5 1.5,19.1667 -0.5,16.5C -0.5,13.1667 -0.5,9.83333 -0.5,6.5C 1.5,3.83333 3.83333,1.5 6.5,-0.5 Z"/></g>
<g><path style="opacity:1" fill="#f4fafc" d="M 11.5,9.5 C 11.6107,10.1174 11.944,10.6174 12.5,11C 11.2899,12.0391 10.2899,13.2058 9.5,14.5C 7.80407,12.871 6.80407,13.2043 6.5,15.5C 6.5,16.1667 6.16667,16.5 5.5,16.5C 3.66829,11.3118 5.66829,8.97848 11.5,9.5 Z"/></g>
<g><path style="opacity:1" fill="#d7eff7" d="M 5.5,16.5 C 6.16667,16.5 6.5,16.1667 6.5,15.5C 8.19593,17.129 9.19593,16.7957 9.5,14.5C 10.2899,13.2058 11.2899,12.0391 12.5,11C 11.944,10.6174 11.6107,10.1174 11.5,9.5C 13.0233,6.63563 15.3567,4.96896 18.5,4.5C 15.3169,8.42713 12.9836,12.9271 11.5,18C 9.01064,18.9411 7.01064,18.4411 5.5,16.5 Z"/></g>
<g><path style="opacity:1" fill="#8fd6ec" d="M 9.5,14.5 C 9.19593,16.7957 8.19593,17.129 6.5,15.5C 6.80407,13.2043 7.80407,12.871 9.5,14.5 Z"/></g>
</svg>
