<?xml version="1.0" encoding="UTF-8"?>
<!DOCTYPE svg PUBLIC "-//W3C//DTD SVG 1.1//EN" "http://www.w3.org/Graphics/SVG/1.1/DTD/svg11.dtd">
<svg xmlns="http://www.w3.org/2000/svg" version="1.1" width="24px" height="24px" style="shape-rendering:geometricPrecision; text-rendering:geometricPrecision; image-rendering:optimizeQuality; fill-rule:evenodd; clip-rule:evenodd" xmlns:xlink="http://www.w3.org/1999/xlink">
<g><path style="opacity:1" fill="#000000" d="M -0.5,-0.5 C 2.83333,-0.5 6.16667,-0.5 9.5,-0.5C 6.7131,0.476669 3.7131,0.810002 0.5,0.5C 0.810002,3.7131 0.476669,6.7131 -0.5,9.5C -0.5,6.16667 -0.5,2.83333 -0.5,-0.5 Z"/></g>
<g><path style="opacity:1" fill="#000000" d="M 12.5,4.5 C 15.6399,3.35916 18.9733,3.1925 22.5,4C 19.1832,4.49834 15.8499,4.66501 12.5,4.5 Z"/></g>
<g><path style="opacity:1" fill="#000000" d="M 1.5,5.5 C 2.72105,4.53537 4.05439,4.70204 5.5,6C 4.07153,6.57906 2.7382,6.41239 1.5,5.5 Z"/></g>
<g><path style="opacity:1" fill="#000000" d="M 12.5,6.5 C 14.6282,5.37086 16.9615,5.20419 19.5,6C 17.1902,6.49665 14.8568,6.66331 12.5,6.5 Z"/></g>
<g><path style="opacity:1" fill="#000000" d="M 0.5,13.5 C 0.896566,12.475 1.56323,12.3083 2.5,13C 1.90558,13.4643 1.23891,13.631 0.5,13.5 Z"/></g>
<g><path style="opacity:1" fill="#000000" d="M 3.5,13.5 C 3.89657,12.475 4.56323,12.3083 5.5,13C 4.90558,13.4643 4.23891,13.631 3.5,13.5 Z"/></g>
<g><path style="opacity:1" fill="#000000" d="M 6.5,13.5 C 6.89657,12.475 7.56323,12.3083 8.5,13C 7.90558,13.4643 7.23891,13.631 6.5,13.5 Z"/></g>
<g><path style="opacity:1" fill="#000000" d="M -0.5,13.5 C -0.166667,13.5 0.166667,13.5 0.5,13.5C 0.5,16.5 0.5,19.5 0.5,22.5C 3.5,22.5 6.5,22.5 9.5,22.5C 9.5,22.8333 9.5,23.1667 9.5,23.5C 6.16667,23.5 2.83333,23.5 -0.5,23.5C -0.5,20.1667 -0.5,16.8333 -0.5,13.5 Z"/></g>
<g><path style="opacity:1" fill="#000000" d="M 9.5,22.5 C 9.33537,19.4816 9.50204,16.4816 10,13.5C 10.8045,16.6965 10.6378,19.6965 9.5,22.5 Z"/></g>
<g><path style="opacity:1" fill="#000000" d="M 23.5,16.5 C 23.5,16.8333 23.5,17.1667 23.5,17.5C 8.83333,17.1667 8.83333,16.8333 23.5,16.5 Z"/></g>
<g><path style="opacity:1" fill="#000000" d="M 12.5,19.5 C 12.8966,18.475 13.5632,18.3083 14.5,19C 13.9056,19.4643 13.2389,19.631 12.5,19.5 Z"/></g>
<g><path style="opacity:1" fill="#000000" d="M 15.5,19.5 C 15.8966,18.475 16.5632,18.3083 17.5,19C 16.9056,19.4643 16.2389,19.631 15.5,19.5 Z"/></g>
<g><path style="opacity:1" fill="#000000" d="M 18.5,19.5 C 18.8966,18.475 19.5632,18.3083 20.5,19C 19.9056,19.4643 19.2389,19.631 18.5,19.5 Z"/></g>
</svg>
