<?xml version="1.0" encoding="UTF-8"?>
<!DOCTYPE svg PUBLIC "-//W3C//DTD SVG 1.1//EN" "http://www.w3.org/Graphics/SVG/1.1/DTD/svg11.dtd">
<svg xmlns="http://www.w3.org/2000/svg" version="1.1" width="24px" height="24px" style="shape-rendering:geometricPrecision; text-rendering:geometricPrecision; image-rendering:optimizeQuality; fill-rule:evenodd; clip-rule:evenodd" xmlns:xlink="http://www.w3.org/1999/xlink">
<g><path style="opacity:0.541" fill="#294a91" d="M 6.5,0.5 C 6.5,0.166667 6.5,-0.166667 6.5,-0.5C 9.83333,-0.5 13.1667,-0.5 16.5,-0.5C 19.2128,1.21351 21.2128,3.54685 22.5,6.5C 21.8333,6.16667 21.1667,5.83333 20.5,5.5C 17.0202,0.971628 12.3535,-0.695038 6.5,0.5 Z"/></g>
<g><path style="opacity:0.945" fill="#4267ac" d="M 6.5,0.5 C 5.16667,2.16667 3.83333,3.83333 2.5,5.5C 1.83333,5.83333 1.16667,6.16667 0.5,6.5C 1.5,3.5 3.5,1.5 6.5,0.5 Z"/></g>
<g><path style="opacity:1" fill="#e6edf8" d="M 14.5,7.5 C 12.6096,9.5776 10.2762,10.9109 7.5,11.5C 7.15829,10.6618 6.49162,10.3284 5.5,10.5C 3.53545,10.0517 3.20211,9.05165 4.5,7.5C 6.59071,8.4996 8.25737,7.83293 9.5,5.5C 6.86446,3.93597 7.03113,2.60264 10,1.5C 11.528,6.61363 12.1947,6.61363 12,1.5C 13.8161,2.32949 15.6494,3.16282 17.5,4C 16.552,4.48278 15.552,4.64945 14.5,4.5C 14.5,5.5 14.5,6.5 14.5,7.5 Z"/></g>
<g><path style="opacity:1" fill="#cbdaed" d="M 6.5,0.5 C 12.3535,-0.695038 17.0202,0.971628 20.5,5.5C 20.5,6.5 20.5,7.5 20.5,8.5C 19.1529,7.82881 17.9862,7.82881 17,8.5C 16.6582,6.38077 15.8249,6.04744 14.5,7.5C 14.5,6.5 14.5,5.5 14.5,4.5C 15.552,4.64945 16.552,4.48278 17.5,4C 15.6494,3.16282 13.8161,2.32949 12,1.5C 12.1947,6.61363 11.528,6.61363 10,1.5C 7.03113,2.60264 6.86446,3.93597 9.5,5.5C 8.25737,7.83293 6.59071,8.4996 4.5,7.5C 3.20211,9.05165 3.53545,10.0517 5.5,10.5C 5.60682,12.3786 5.10682,12.7119 4,11.5C 3.28281,12.0442 2.78281,12.7109 2.5,13.5C 1.64285,10.6353 1.64285,7.96865 2.5,5.5C 3.83333,3.83333 5.16667,2.16667 6.5,0.5 Z"/></g>
<g><path style="opacity:1" fill="#6d97ca" d="M 2.5,5.5 C 1.64285,7.96865 1.64285,10.6353 2.5,13.5C 2.74973,15.674 3.74973,17.3406 5.5,18.5C 5.5,19.1667 5.16667,19.5 4.5,19.5C 3.83333,19.5 3.16667,19.5 2.5,19.5C 2.57298,17.9731 1.90632,16.9731 0.5,16.5C 0.166667,16.5 -0.166667,16.5 -0.5,16.5C -0.5,13.1667 -0.5,9.83333 -0.5,6.5C -0.166667,6.5 0.166667,6.5 0.5,6.5C 1.16667,6.16667 1.83333,5.83333 2.5,5.5 Z"/></g>
<g><path style="opacity:1" fill="#3766a7" d="M 20.5,5.5 C 21.1667,5.83333 21.8333,6.16667 22.5,6.5C 22.8333,6.5 23.1667,6.5 23.5,6.5C 23.5,9.83333 23.5,13.1667 23.5,16.5C 23.1667,16.5 22.8333,16.5 22.5,16.5C 22.1667,16.5 21.8333,16.5 21.5,16.5C 21.8016,13.9407 21.4682,11.6074 20.5,9.5C 20.5,9.16667 20.5,8.83333 20.5,8.5C 20.5,7.5 20.5,6.5 20.5,5.5 Z"/></g>
<g><path style="opacity:1" fill="#b8bfdc" d="M 14.5,7.5 C 13.925,9.4113 12.925,11.078 11.5,12.5C 9.23261,12.8545 7.89927,12.5211 7.5,11.5C 10.2762,10.9109 12.6096,9.5776 14.5,7.5 Z"/></g>
<g><path style="opacity:1" fill="#f6f8fa" d="M 5.5,10.5 C 6.49162,10.3284 7.15829,10.6618 7.5,11.5C 7.89927,12.5211 9.23261,12.8545 11.5,12.5C 12.7729,14.7128 13.7729,17.0462 14.5,19.5C 14.5,19.8333 14.5,20.1667 14.5,20.5C 11.2457,20.7931 8.24571,20.1264 5.5,18.5C 3.74973,17.3406 2.74973,15.674 2.5,13.5C 2.78281,12.7109 3.28281,12.0442 4,11.5C 5.10682,12.7119 5.60682,12.3786 5.5,10.5 Z"/></g>
<g><path style="opacity:1" fill="#f0eef2" d="M 20.5,8.5 C 20.5,8.83333 20.5,9.16667 20.5,9.5C 21.3695,14.6173 19.3695,17.9507 14.5,19.5C 13.7729,17.0462 12.7729,14.7128 11.5,12.5C 12.925,11.078 13.925,9.4113 14.5,7.5C 15.8249,6.04744 16.6582,6.38077 17,8.5C 17.9862,7.82881 19.1529,7.82881 20.5,8.5 Z"/></g>
<g><path style="opacity:0.004" fill="#161b30" d="M 0.5,16.5 C 1.90632,16.9731 2.57298,17.9731 2.5,19.5C 1.09368,19.0269 0.427017,18.0269 0.5,16.5 Z"/></g>
<g><path style="opacity:1" fill="#8fb9e5" d="M 20.5,9.5 C 21.4682,11.6074 21.8016,13.9407 21.5,16.5C 20.0892,18.914 18.0892,20.5806 15.5,21.5C 15.5,20.8333 15.1667,20.5 14.5,20.5C 14.5,20.1667 14.5,19.8333 14.5,19.5C 19.3695,17.9507 21.3695,14.6173 20.5,9.5 Z"/></g>
<g><path style="opacity:1" fill="#b1cbe4" d="M 5.5,18.5 C 8.24571,20.1264 11.2457,20.7931 14.5,20.5C 15.1667,20.5 15.5,20.8333 15.5,21.5C 11.3492,23.0871 7.68256,22.4204 4.5,19.5C 5.16667,19.5 5.5,19.1667 5.5,18.5 Z"/></g>
<g><path style="opacity:0.06" fill="#151a29" d="M 21.5,16.5 C 21.8333,16.5 22.1667,16.5 22.5,16.5C 21.2128,19.4532 19.2128,21.7865 16.5,23.5C 13.1667,23.5 9.83333,23.5 6.5,23.5C 4.86076,22.5275 3.52743,21.1942 2.5,19.5C 3.16667,19.5 3.83333,19.5 4.5,19.5C 7.68256,22.4204 11.3492,23.0871 15.5,21.5C 18.0892,20.5806 20.0892,18.914 21.5,16.5 Z"/></g>
</svg>
